<?xml version="1.0" encoding="UTF-8"?>
<svg xmlns="http://www.w3.org/2000/svg" xmlns:xlink="http://www.w3.org/1999/xlink" width="32pt" height="32pt" viewBox="0 0 32 32" version="1.1">
<g id="surface1">
<path style=" stroke:none;fill-rule:nonzero;fill:rgb(0%,100%,14.901961%);fill-opacity:1;" d="M 2.398438 29.601562 C -0.800781 26.398438 -0.800781 5.601562 2.398438 2.398438 C 5.601562 -0.800781 26.398438 -0.800781 29.601562 2.398438 C 32.800781 5.601562 32.800781 26.398438 29.601562 29.601562 C 26.398438 32.800781 5.601562 32.800781 2.398438 29.601562 Z M 2.398438 29.601562 "/>
<path style=" stroke:none;fill-rule:nonzero;fill:rgb(0%,51.764706%,100%);fill-opacity:1;" d="M 0 16 C 0 6.601562 0.398438 6 5 6 C 9.601562 6 10 6.601562 10 16 C 10 25.398438 9.601562 26 5 26 C 0.398438 26 0 25.398438 0 16 Z M 0 16 "/>
<path style=" stroke:none;fill-rule:nonzero;fill:rgb(0%,51.764706%,100%);fill-opacity:1;" d="M 12 22.800781 C 12 20 12.601562 20 15 22 C 16.601562 23.398438 18 24.800781 18 25.199219 C 18 25.601562 16.601562 26 15 26 C 13.398438 26 12 24.601562 12 22.800781 Z M 12 22.800781 "/>
<path style=" stroke:none;fill-rule:nonzero;fill:rgb(0%,51.764706%,100%);fill-opacity:1;" d="M 17.398438 21 C 14 16.199219 14 15.800781 17.398438 11 C 19.601562 8 23 6.199219 26.601562 6 C 31.800781 6 32 6.398438 32 16 C 32 25.601562 31.800781 26 26.601562 26 C 23 25.800781 19.601562 24 17.398438 21 Z M 17.398438 21 "/>
<path style=" stroke:none;fill-rule:nonzero;fill:rgb(0%,51.764706%,100%);fill-opacity:1;" d="M 12 9 C 12 7.398438 13.398438 6 15.199219 6 C 18 6 18 6.601562 16 9 C 14.601562 10.601562 13.199219 12 12.800781 12 C 12.398438 12 12 10.601562 12 9 Z M 12 9 "/>
</g>
</svg>
